# xmcd
#
# Track frame offsets:
#	150
#	3945
#	15170
#	32552
#	43380
#	54780
#	67800
#	81362
#	92790
#	106615
#	119485
#	133042
#	143472
#
# Disc length: 2109 seconds
#
# Revision: 1
# Processed by: cddbd v1.4PL0 Copyright (c) Steve Scherf et al.
# Submitted via: CDmax 1.8
#
DISCID=96083b0d
DTITLE=Rattlesnake Annie - Sings Hank Williams
DYEAR=1990
DGENRE=Country
TTITLE0=Intro by Grant Turner
TTITLE1=Low down blues
TTITLE2=I'm so lonesome I could cry
TTITLE3=Sundown and sorrow
TTITLE4=The old home
TTITLE5=Crying in your sleep
TTITLE6=Wedding bells
TTITLE7=My bucket's got a hole in it
TTITLE8=Rock my cradle
TTITLE9=House without love
TTITLE10=Pale horses and its rider
TTITLE11=Tennessee border
TTITLE12=Waltz of the wind
EXTD=
EXTT0=
EXTT1=
EXTT2=
EXTT3=
EXTT4=
EXTT5=
EXTT6=
EXTT7=
EXTT8=
EXTT9=
EXTT10=
EXTT11=
EXTT12=
PLAYORDER=
